<svg xmlns="http://www.w3.org/2000/svg" aria-hidden="true" style="position:absolute;width:0;height:0;overflow:hidden">
  <defs>
    <symbol id="icon-cross" viewBox="0 0 32 32">
      <path  stroke-linejoin="miter" stroke-linecap="round" stroke-miterlimit="4" stroke-width="3.5556" d="M29.629 30.222l-27.259-28.444M29.629 1.778l-27.259 28.444"></path>
    </symbol>
    <symbol id="icon-menu" viewBox="0 0 48 32">
      <path d="M45.467 13.333h-42.933c-1.399 0-2.533 0.681-2.533 1.52v0.16c0 0.839 1.134 1.52 2.533 1.52h42.933c1.399 0 2.533-0.681 2.533-1.52v-0.16c0-0.839-1.134-1.52-2.533-1.52zM45.467 26.667h-42.933c-1.399 0-2.533 0.681-2.533 1.52v0.16c0 0.839 1.134 1.52 2.533 1.52h42.933c1.399 0 2.533-0.681 2.533-1.52v-0.16c0-0.839-1.134-1.52-2.533-1.52zM45.467 0h-42.933c-1.399 0-2.533 0.681-2.533 1.52v0.16c0 0.839 1.134 1.52 2.533 1.52h42.933c1.399 0 2.533-0.681 2.533-1.52v-0.16c0-0.839-1.134-1.52-2.533-1.52z"></path>
    </symbol>
    <symbol id="icon-facebook" viewBox="0 0 35 32">
      <path d="M26.299 10.363h-5.904v-3.323c0-1.248 0.963-1.539 1.643-1.539h4.165v-5.483l-5.736-0.019c-6.371 0-7.819 4.091-7.819 6.707v3.653h-3.683v5.653h3.68v15.987h7.749v-15.989h5.227l0.677-5.648z"></path>
    </symbol>
    <symbol id="icon-instagram" viewBox="0 0 35 32">
      <path d="M34.299 2c0 1.105-0.895 2-2 2s-2-0.895-2-2c0-1.105 0.895-2 2-2s2 0.895 2 2z"></path>
      <path d="M18.299 30v0c-7.732 0-14-6.268-14-14s6.268-14 14-14v0c7.732 0 14 6.268 14 14s-6.268 14-14 14zM18.299 25.333c5.155 0 9.333-4.179 9.333-9.333s-4.179-9.333-9.333-9.333v0c-5.155 0-9.333 4.179-9.333 9.333s4.179 9.333 9.333 9.333v0z"></path>
    </symbol>
    <symbol id="icon-slider-current" viewBox="0 0 80 32">
      <path fill="#fff" d="M16 0h48c8.837 0 16 7.163 16 16s-7.163 16-16 16H16C7.163 32 0 24.837 0 16S7.163 0 16 0z" style="fill:var(--color2, #fff)"/>
    </symbol>
    <symbol id="icon-slider" viewBox="0 0 32 32">
      <path fill="#fff" d="M32 16c0 8.837-7.163 16-16 16S0 24.837 0 16 7.163 0 16 0s16 7.163 16 16z" style="fill:var(--color2, #fff)"/>
    </symbol>
    <symbol id="icon-youtube" viewBox="0 0 35 32">
      <path d="M30.8 5.973c1.379 0.349 2.461 1.387 2.829 2.701 0.669 2.384 0.669 7.36 0.669 7.36s0 4.973-0.667 7.357c-0.371 1.315-1.453 2.307-2.832 2.659-2.493 0.64-12.501 0.64-12.501 0.64s-10.005 0-12.501-0.64c-1.379-0.352-2.461-1.344-2.829-2.659-0.667-2.384-0.667-7.36-0.667-7.36s0-4.973 0.667-7.357c0.402-1.338 1.465-2.359 2.8-2.696l0.027-0.006c2.499-0.64 12.509-0.64 12.509-0.64s10.005 0 12.499 0.64zM15.027 11.517v9.032l8.363-4.517-8.363-4.512z"></path>
    </symbol>
    <symbol id="icon-Frame-4527" viewBox="0 0 455 32">
      <path d=""></path>
    </symbol>
  </defs>
</svg>
